<?xml version="1.0" standalone="no"?>
<!DOCTYPE svg PUBLIC "-//W3C//DTD SVG 20010904//EN"
 "http://www.w3.org/TR/2001/REC-SVG-20010904/DTD/svg10.dtd">
<svg version="1.0" xmlns="http://www.w3.org/2000/svg"
 width="1200.000000pt" height="1200.000000pt" viewBox="0 0 1200.000000 1200.000000"
 preserveAspectRatio="xMidYMid meet">
<metadata>
Created by potrace 1.14, written by Peter Selinger 2001-2017
</metadata>
<g transform="translate(0.000000,1200.000000) scale(0.100000,-0.100000)"
fill="#000000" stroke="none">
<path d="M5977 11963 c-17 -33 -74 -132 -87 -153 -9 -14 -390 -675 -433 -750
-10 -19 -42 -73 -70 -120 -27 -47 -61 -105 -75 -130 -22 -40 -336 -584 -655
-1135 -60 -104 -134 -233 -164 -285 -30 -52 -58 -102 -63 -110 -5 -8 -24 -40
-41 -70 -58 -101 -324 -562 -441 -765 -64 -110 -146 -252 -183 -315 -37 -63
-81 -140 -99 -171 -150 -267 -150 -268 -171 -262 -11 3 -31 14 -45 23 -14 10
-173 103 -355 208 -181 105 -550 317 -820 473 -269 156 -587 339 -705 407
-118 68 -229 132 -247 142 -17 11 -152 88 -300 173 -147 85 -292 168 -321 186
-120 71 -118 72 -60 -26 58 -101 77 -134 125 -218 19 -33 42 -73 52 -90 10
-16 29 -50 43 -75 14 -25 71 -123 127 -219 55 -95 101 -175 101 -176 0 -2 27
-49 60 -104 33 -56 60 -105 60 -110 0 -5 3 -11 8 -13 4 -1 15 -19 26 -38 10
-19 51 -90 90 -157 39 -68 76 -131 81 -140 42 -74 202 -351 210 -364 6 -9 18
-32 29 -50 10 -19 77 -135 149 -259 71 -124 139 -241 150 -260 10 -19 86 -150
167 -290 81 -140 157 -271 168 -290 10 -19 70 -122 131 -227 61 -106 111 -197
111 -203 0 -6 -42 -83 -94 -173 -51 -89 -103 -178 -114 -197 -10 -19 -70 -123
-132 -230 -62 -107 -122 -211 -133 -230 -10 -19 -23 -39 -27 -45 -4 -5 -18
-30 -32 -55 -14 -25 -135 -236 -270 -470 -135 -234 -258 -447 -273 -475 -15
-27 -36 -62 -46 -77 -11 -14 -19 -28 -19 -31 0 -2 -30 -56 -66 -118 -37 -63
-76 -130 -87 -149 -40 -72 -281 -488 -328 -568 -27 -46 -49 -88 -49 -93 0 -5
-4 -9 -10 -9 -5 0 -10 -4 -10 -9 0 -5 -56 -106 -124 -225 -68 -118 -117 -212
-108 -209 9 4 43 23 77 43 33 21 312 182 620 360 676 390 845 487 865 500 8 5
40 23 70 41 215 123 1042 601 1070 618 19 11 60 34 90 50 30 17 67 38 82 48
15 9 29 15 31 13 4 -5 111 -191 155 -270 27 -49 107 -186 122 -210 5 -8 17
-28 26 -45 18 -32 425 -738 632 -1095 68 -118 138 -240 155 -270 16 -30 33
-59 37 -65 4 -5 19 -30 32 -55 14 -25 92 -160 173 -300 144 -249 428 -739 464
-803 10 -18 45 -77 76 -132 32 -55 65 -113 75 -130 9 -16 104 -181 210 -365
106 -184 201 -347 211 -362 11 -15 19 -30 19 -33 0 -3 11 -22 23 -43 13 -20
35 -59 50 -85 l25 -48 55 93 c50 86 1017 1760 1182 2048 40 69 206 357 370
640 164 283 307 531 317 550 11 19 63 108 114 197 52 90 136 236 188 325 51
90 105 183 120 208 14 25 52 91 83 147 64 113 62 113 136 66 21 -13 54 -33 73
-44 19 -10 225 -129 457 -263 232 -134 438 -253 457 -264 19 -11 91 -52 160
-92 69 -39 143 -82 165 -95 22 -12 94 -54 160 -92 148 -86 687 -398 735 -426
19 -10 152 -87 295 -169 143 -83 280 -161 304 -175 l44 -26 -20 34 c-12 19
-105 180 -208 359 -103 179 -211 366 -240 415 -29 50 -139 241 -245 425 -106
184 -257 445 -335 580 -78 135 -153 265 -167 290 -14 25 -49 86 -78 135 -29
50 -64 110 -77 134 -14 24 -91 157 -171 295 -79 138 -153 265 -162 281 -9 17
-67 117 -128 222 -62 106 -112 197 -112 202 0 6 84 155 186 333 103 178 246
427 319 553 73 127 190 329 260 450 70 121 177 306 237 410 60 105 114 197
119 205 50 82 249 434 249 441 0 5 5 9 10 9 6 0 10 4 10 9 0 5 55 104 123 220
67 116 134 233 148 259 14 26 83 145 153 265 l126 218 -58 -32 c-31 -18 -61
-35 -67 -40 -5 -4 -26 -16 -45 -27 -58 -32 -286 -164 -420 -242 -69 -40 -145
-84 -170 -98 -25 -14 -99 -56 -165 -95 -66 -38 -136 -79 -155 -90 -82 -46
-335 -192 -624 -359 -169 -98 -327 -189 -350 -202 -22 -13 -81 -47 -131 -76
-49 -29 -106 -62 -125 -72 -19 -11 -109 -63 -200 -116 -91 -52 -181 -104 -200
-115 -19 -10 -39 -23 -45 -27 -19 -15 -166 -92 -169 -89 -3 5 -121 210 -154
269 -13 25 -28 50 -32 55 -4 6 -21 35 -38 65 -16 30 -68 121 -116 202 -47 81
-86 150 -86 153 0 3 -9 18 -19 33 -10 15 -106 178 -212 362 -106 184 -239 415
-296 513 -57 98 -103 183 -103 188 0 5 -4 9 -10 9 -5 0 -10 4 -10 9 0 9 -63
120 -286 504 -57 98 -104 181 -104 183 0 3 -9 17 -19 32 -15 21 -178 303 -285
492 -8 14 -37 63 -64 110 -27 47 -169 292 -314 545 -146 253 -275 476 -287
495 -11 19 -25 45 -31 58 -13 29 -25 28 -43 -5z m65 -895 c19 -35 45 -79 55
-98 11 -19 94 -163 185 -320 91 -157 173 -298 182 -315 9 -16 26 -46 37 -65
22 -36 271 -467 306 -530 11 -19 76 -132 145 -250 69 -118 136 -235 150 -260
14 -25 55 -96 92 -158 36 -62 77 -132 90 -155 12 -23 65 -114 116 -202 51 -88
102 -176 112 -195 11 -19 68 -118 127 -220 59 -102 176 -304 260 -450 84 -146
166 -287 182 -313 16 -27 29 -54 29 -60 0 -7 -51 -41 -113 -76 -61 -36 -222
-128 -357 -206 -270 -156 -911 -526 -1115 -643 -71 -41 -147 -85 -167 -98 -21
-13 -40 -24 -42 -24 -3 0 -50 -27 -105 -60 -55 -33 -102 -60 -105 -60 -3 0
-27 -14 -55 -31 l-49 -31 -99 56 c-54 32 -107 62 -118 69 -39 24 -91 54 -135
79 -25 14 -265 152 -535 308 -269 156 -533 308 -585 338 -109 62 -102 58 -315
182 -88 51 -176 102 -195 112 -19 11 -58 33 -87 49 l-52 30 34 57 c142 243
285 495 285 503 0 5 5 9 10 9 6 0 10 4 10 8 0 5 156 278 346 607 190 330 359
624 376 654 17 31 37 63 44 72 8 8 14 18 14 21 0 3 32 61 72 129 66 114 119
207 166 291 11 18 50 85 87 148 37 63 75 129 84 145 10 17 35 61 57 98 21 38
51 90 65 115 14 26 109 189 209 362 101 173 199 343 219 378 19 34 37 62 41
62 3 0 22 -28 42 -62z m-4021 -3019 c134 -78 264 -153 289 -167 25 -14 225
-130 445 -257 221 -128 405 -234 410 -236 25 -10 125 -71 125 -76 0 -5 -133
-238 -331 -580 -49 -83 -97 -167 -108 -185 -72 -127 -70 -123 -77 -103 -5 11
-33 63 -64 115 -31 52 -59 102 -63 110 -4 8 -13 24 -19 35 -18 27 -51 82 -80
135 -14 25 -131 227 -260 450 -179 310 -471 815 -515 893 -2 4 -2 7 0 7 2 0
114 -64 248 -141z m8201 118 c-10 -12 -151 -252 -210 -357 -13 -25 -39 -70
-58 -100 -18 -30 -132 -228 -254 -440 -206 -357 -425 -735 -460 -797 -20 -33
-30 -32 -51 6 -9 17 -21 36 -26 43 -6 7 -26 42 -45 78 -20 36 -57 100 -82 143
-25 43 -46 82 -46 87 0 6 -4 10 -10 10 -5 0 -10 4 -10 9 0 5 -59 112 -132 237
-83 143 -128 229 -120 232 7 2 18 9 25 15 7 7 26 19 42 28 17 8 120 67 230
131 110 64 216 124 235 135 19 11 139 80 265 153 585 339 709 409 713 405 3
-2 0 -11 -6 -18z m-6497 -1103 c11 -6 171 -98 355 -204 184 -106 355 -204 380
-218 25 -14 61 -35 80 -47 33 -20 552 -321 613 -354 16 -9 36 -20 45 -26 10
-5 95 -55 190 -110 94 -54 172 -102 172 -105 0 -5 -980 -575 -1024 -595 -11
-5 -23 -12 -26 -16 -3 -3 -23 -16 -45 -28 -22 -12 -53 -29 -70 -39 -16 -10
-81 -47 -143 -82 -62 -36 -121 -69 -130 -75 -28 -16 -174 -101 -212 -123 -19
-10 -75 -43 -124 -71 -108 -63 -123 -65 -145 -26 -9 17 -26 46 -37 65 -12 19
-33 55 -47 80 -13 25 -91 160 -172 300 -81 140 -158 273 -171 295 -12 22 -58
102 -102 178 l-80 138 135 232 c75 128 145 250 158 272 12 22 79 139 149 260
71 121 140 240 154 265 38 69 42 73 61 58 9 -7 25 -18 36 -24z m4765 -239 c15
-27 49 -85 74 -128 25 -43 46 -82 46 -87 0 -6 5 -10 10 -10 6 0 10 -4 10 -9 0
-9 58 -110 210 -371 91 -156 120 -210 120 -223 0 -6 -18 -40 -39 -76 -21 -36
-97 -167 -169 -291 -71 -124 -139 -241 -151 -260 -11 -19 -24 -42 -28 -50 -4
-8 -45 -80 -91 -160 -47 -80 -96 -165 -110 -190 -40 -72 -39 -72 -80 -45 -35
22 -290 170 -532 308 -58 33 -157 90 -220 127 -63 37 -133 78 -155 90 -54 30
-681 391 -780 450 -44 26 -99 57 -122 70 -24 13 -43 26 -43 29 0 6 147 93 279
167 31 17 110 63 176 101 120 70 669 388 735 426 30 17 196 112 604 348 l99
57 65 -111 c35 -62 76 -134 92 -162z m-2208 -1236 c144 -83 335 -193 423 -244
88 -51 392 -227 675 -390 283 -163 565 -326 627 -362 l112 -64 -48 -82 c-27
-45 -92 -158 -146 -252 -54 -93 -139 -242 -190 -330 -51 -88 -102 -176 -113
-195 -10 -19 -48 -85 -84 -146 -36 -61 -68 -117 -71 -125 -4 -8 -13 -23 -19
-34 -21 -32 -58 -94 -84 -141 -13 -23 -80 -139 -147 -256 -68 -117 -140 -242
-161 -278 -20 -36 -41 -72 -46 -80 -24 -37 -250 -432 -250 -436 0 -2 -15 -27
-33 -56 -19 -29 -48 -78 -65 -109 -16 -32 -37 -68 -45 -80 -9 -13 -28 -47 -44
-74 -44 -79 -153 -268 -164 -285 -14 -23 -359 -620 -382 -663 -11 -20 -23 -37
-27 -37 -6 0 -52 76 -105 175 -15 28 -31 55 -35 60 -4 6 -109 186 -232 400
-124 215 -327 566 -450 780 -124 215 -234 406 -245 425 -11 19 -67 116 -125
215 -57 99 -120 207 -139 240 -19 33 -40 69 -46 80 -7 11 -18 32 -25 48 -7 15
-16 27 -20 27 -4 0 -8 4 -8 9 0 8 -54 104 -267 471 -31 52 -71 120 -89 152
-19 31 -34 59 -34 63 0 4 -8 19 -19 33 -17 25 -182 310 -239 412 -13 25 -28
49 -33 54 -10 11 14 28 126 92 44 25 87 49 95 54 16 11 287 167 360 208 24 14
299 172 610 352 311 179 594 343 630 364 36 20 72 41 80 46 87 55 207 119 217
116 6 -3 130 -73 275 -157z m2988 -114 c29 -49 64 -110 78 -135 14 -25 35 -61
47 -80 12 -19 33 -55 47 -80 14 -25 112 -196 218 -380 106 -184 204 -355 218
-380 14 -25 33 -56 42 -70 9 -14 31 -50 47 -80 17 -30 82 -145 146 -255 64
-110 114 -201 112 -203 -1 -2 -31 14 -66 36 -35 21 -89 52 -119 69 -30 16
-147 84 -260 150 -113 65 -212 122 -220 126 -8 4 -33 18 -55 32 -22 14 -47 28
-55 32 -8 4 -31 16 -50 28 -19 12 -55 33 -80 47 -86 48 -605 350 -609 353 -2
2 59 111 135 242 76 131 144 249 151 263 8 14 26 46 41 71 15 25 61 105 102
177 41 71 76 129 77 129 0 -1 25 -42 53 -92z m-6450 32 c0 -4 8 -20 19 -35 10
-15 65 -108 122 -207 56 -99 151 -264 211 -367 60 -103 111 -194 114 -201 3
-10 -38 -39 -133 -93 -76 -43 -146 -83 -155 -89 -17 -10 -224 -128 -263 -151
-11 -6 -76 -44 -145 -84 -69 -40 -143 -83 -165 -95 -22 -13 -177 -102 -344
-199 -167 -97 -305 -175 -307 -173 -2 2 14 32 35 67 36 62 445 770 527 913 21
38 47 83 58 100 20 36 251 434 312 540 21 38 44 76 49 85 27 46 27 46 46 21
10 -13 19 -28 19 -32z"/>
</g>
</svg>
